<?xml version="1.0" standalone="no"?><!DOCTYPE svg PUBLIC "-//W3C//DTD SVG 1.1//EN" "http://www.w3.org/Graphics/SVG/1.1/DTD/svg11.dtd"><svg t="1763087552019" class="icon" viewBox="0 0 1024 1024" version="1.1" xmlns="http://www.w3.org/2000/svg" p-id="2682" xmlns:xlink="http://www.w3.org/1999/xlink" width="200" height="200"><path d="M674.92049 167.601633l3.343673 3.176489 147.748572 147.748572a83.591837 83.591837 0 0 1 3.176489 114.896979l-3.155591 3.343674-431.083102 431.062204a83.591837 83.591837 0 0 1-54.355592 24.346122l-4.743837 0.125388H167.183673a62.693878 62.693878 0 0 1-62.589387-58.994939L104.489796 829.607184v-168.646531a83.591837 83.591837 0 0 1 21.232326-55.672163l3.260082-3.448163L560.044408 170.778122a83.591837 83.591837 0 0 1 114.876082-3.155591z m243.231347 639.414857a20.897959 20.897959 0 0 1 20.897959 20.897959v41.795918a20.897959 20.897959 0 0 1-20.897959 20.89796h-334.367347a20.897959 20.897959 0 0 1-20.897959-20.89796v-41.795918a20.897959 20.897959 0 0 1 20.897959-20.897959h334.367347zM500.924082 348.097306L188.081633 660.918857v147.748572l147.769469 0.020898 312.842449-312.842449-147.769469-147.790368z m417.227755 291.73551a20.897959 20.897959 0 0 1 20.897959 20.89796v41.795918a20.897959 20.897959 0 0 1-20.897959 20.897959h-167.183674a20.897959 20.897959 0 0 1-20.897959-20.897959v-41.795918a20.897959 20.897959 0 0 1 20.897959-20.89796h167.183674zM619.143837 229.877551L560.065306 288.97698l147.748572 147.748571 59.099428-59.078531L619.164735 229.877551z" fill="#8a8a8a" p-id="2683"></path></svg>