<?xml version="1.0" standalone="no"?><!DOCTYPE svg PUBLIC "-//W3C//DTD SVG 1.1//EN" "http://www.w3.org/Graphics/SVG/1.1/DTD/svg11.dtd"><svg t="1763277701028" class="icon" viewBox="0 0 1024 1024" version="1.1" xmlns="http://www.w3.org/2000/svg" p-id="2680" xmlns:xlink="http://www.w3.org/1999/xlink" width="200" height="200"><path d="M851.3536 269.824H641.536v-95.3344c0-13.5168-11.0592-24.576-24.576-24.576h-209.92c-13.5168 0-24.576 11.0592-24.576 24.576v95.3344H172.6464c-11.264 0-20.48 9.216-20.48 20.48s9.216 20.48 20.48 20.48h678.6048c11.264 0 20.48-9.216 20.48-20.48 0.1024-11.264-9.1136-20.48-20.3776-20.48z m-427.9296-78.848h177.152v78.848h-177.152v-78.848zM736.6656 375.808c-11.264 0-20.48 9.216-20.48 20.48v436.8384H600.7808V396.288c0-11.264-9.216-20.48-20.48-20.48s-20.48 9.216-20.48 20.48v436.8384H454.5536V396.288c0-11.264-9.216-20.48-20.48-20.48s-20.48 9.216-20.48 20.48v436.8384H298.0864V396.288c0-11.264-9.216-20.48-20.48-20.48s-20.48 9.216-20.48 20.48v457.3184c0 2.1504 0.3072 4.1984 0.9216 6.0416 2.56 8.2944 10.3424 14.4384 19.5584 14.4384H736.768c9.216 0 16.9984-6.0416 19.5584-14.4384 0.6144-1.9456 0.9216-3.9936 0.9216-6.0416V396.288c-0.1024-11.3664-9.216-20.48-20.5824-20.48z" p-id="2681" fill="#8a8a8a"></path></svg>