<?xml version="1.0" standalone="no"?><!DOCTYPE svg PUBLIC "-//W3C//DTD SVG 1.1//EN" "http://www.w3.org/Graphics/SVG/1.1/DTD/svg11.dtd"><svg t="1763098981849" class="icon" viewBox="0 0 1024 1024" version="1.1" xmlns="http://www.w3.org/2000/svg" p-id="6430" xmlns:xlink="http://www.w3.org/1999/xlink" width="200" height="200"><path d="M510.075 64.16c-247.951 0-448.958 201.006-448.958 448.958 0 247.953 201.006 448.96 448.958 448.96 247.953 0 448.958-201.006 448.958-448.96 0-247.952-201.004-448.958-448.958-448.958z m0 858.877c-226.39 0-409.916-183.528-409.916-409.92S283.685 103.2 510.075 103.2c226.392 0 409.918 183.526 409.918 409.918S736.467 923.037 510.075 923.037zM627.95 319.691c-45.6 0-92.921 27.24-117.982 83.551-25.96-57.949-72.624-85.323-117.49-85.323l-0.01 39.04c43.381 0 117.617 100.994 117.617 100.994s73.889-99.22 117.865-99.22c19.247 0 37.148 7.718 50.416 21.71 16.51 17.406 25.231 43.404 25.231 75.183 0 63.955-54.414 118.398-100.063 152.784-36.112 27.222-72.833 46.686-93.231 56.615-20.467-9.93-57.295-29.374-93.508-56.539-45.729-34.293-100.241-88.488-100.241-151.908 0-32.348 8.843-59.015 25.591-77.127 13.416-14.505 31.279-22.493 50.313-22.493l0.02-39.04c-59.94 0-116.67 48.8-116.661 138.66 0 154.178 234.508 251.738 234.508 251.738s234.008-97.56 234.008-252.691c0.012-89.27-56.719-135.934-116.383-135.934z" p-id="6431" fill="#8a8a8a"></path></svg>