<?xml version="1.0" standalone="no"?><!DOCTYPE svg PUBLIC "-//W3C//DTD SVG 1.1//EN" "http://www.w3.org/Graphics/SVG/1.1/DTD/svg11.dtd"><svg t="1763001643762" class="icon" viewBox="0 0 1024 1024" version="1.1" xmlns="http://www.w3.org/2000/svg" p-id="3819" xmlns:xlink="http://www.w3.org/1999/xlink" width="200" height="200"><path d="M149.333333 512a128 128 0 0 1 128-128h469.333334a128 128 0 0 1 128 128v275.904a128 128 0 0 1-128 128H277.333333a128 128 0 0 1-128-128V512z m128-85.333333a85.333333 85.333333 0 0 0-85.333333 85.333333v275.904a85.333333 85.333333 0 0 0 85.333333 85.333333h469.333334a85.333333 85.333333 0 0 0 85.333333-85.333333V512a85.333333 85.333333 0 0 0-85.333333-85.333333H277.333333z" fill="#8a8a8a" p-id="3820"></path><path d="M298.666667 320c0-117.824 95.509333-213.333333 213.333333-213.333333s213.333333 95.509333 213.333333 213.333333v64a21.333333 21.333333 0 1 1-42.666666 0v-64a170.666667 170.666667 0 1 0-341.333334 0v64a21.333333 21.333333 0 1 1-42.666666 0v-64zM533.333333 576a21.333333 21.333333 0 0 1 21.333334 21.333333v128a21.333333 21.333333 0 1 1-42.666667 0v-128a21.333333 21.333333 0 0 1 21.333333-21.333333z" fill="#8a8a8a" p-id="3821"></path></svg>