<?xml version="1.0" standalone="no"?><!DOCTYPE svg PUBLIC "-//W3C//DTD SVG 1.1//EN" "http://www.w3.org/Graphics/SVG/1.1/DTD/svg11.dtd"><svg t="1763099020577" class="icon" viewBox="0 0 1024 1024" version="1.1" xmlns="http://www.w3.org/2000/svg" p-id="8810" xmlns:xlink="http://www.w3.org/1999/xlink" width="200" height="200"><path d="M658.285714 609.52381a48.761905 48.761905 0 1 1 97.52381 0v195.09638C755.809524 912.262095 668.355048 999.619048 560.761905 999.619048a48.761905 48.761905 0 1 1 0-97.52381c53.76 0 97.52381-43.715048 97.523809-97.475048V609.52381z" fill="#8a8a8a" p-id="8811" data-spm-anchor-id="a313x.search_index.0.i10.60803a81y4SMpR" class="selected"></path><path d="M170.666667 438.857143c0-188.513524 152.81981-341.333333 341.333333-341.333333s341.333333 152.81981 341.333333 341.333333h97.52381c0-242.371048-196.486095-438.857143-438.857143-438.857143S73.142857 196.486095 73.142857 438.857143h97.52381z m0 0c0-188.513524 152.81981-341.333333 341.333333-341.333333s341.333333 152.81981 341.333333 341.333333h97.52381c0-242.371048-196.486095-438.857143-438.857143-438.857143S73.142857 196.486095 73.142857 438.857143h97.52381z" fill="#8a8a8a" p-id="8812"></path><path d="M755.809524 439.076571v194.608762c0 0.146286 0.073143 0.219429-0.048762 0.219429h97.621333s-0.048762 0.048762-0.048762-0.219429V439.100952c0-0.146286-0.073143-0.219429 0.048762-0.219428h-97.621333s0.048762-0.048762 0.048762 0.219428z m-97.52381 0A97.475048 97.475048 0 0 1 755.760762 341.333333h97.621333C907.264 341.333333 950.857143 385.219048 950.857143 439.076571v194.608762A97.475048 97.475048 0 0 1 853.382095 731.428571h-97.621333C701.878857 731.428571 658.285714 687.542857 658.285714 633.685333V439.100952zM170.666667 439.076571v194.608762c0 0.146286 0.073143 0.219429-0.048762 0.219429h97.621333s-0.048762 0.048762-0.048762-0.219429V439.100952c0-0.146286-0.073143-0.219429 0.048762-0.219428H170.617905s0.048762-0.048762 0.048762 0.219428z m-97.52381 0A97.475048 97.475048 0 0 1 170.617905 341.333333h97.621333C322.121143 341.333333 365.714286 385.219048 365.714286 439.076571v194.608762A97.475048 97.475048 0 0 1 268.239238 731.428571H170.617905C116.736 731.428571 73.142857 687.542857 73.142857 633.685333V439.100952z" fill="#8a8a8a" p-id="8813"></path></svg>