<?xml version="1.0" standalone="no"?><!DOCTYPE svg PUBLIC "-//W3C//DTD SVG 1.1//EN" "http://www.w3.org/Graphics/SVG/1.1/DTD/svg11.dtd"><svg t="1763031316722" class="icon" viewBox="0 0 1024 1024" version="1.1" xmlns="http://www.w3.org/2000/svg" p-id="2717" xmlns:xlink="http://www.w3.org/1999/xlink" width="200" height="200"><path d="M460.985121 202.831065H191.459353c-31.00135 0-55.689821 30.864855-55.689821 60.364763v641.132479c0 29.51697 25.166203 53.437659 56.150491 53.437659h494.144792c31.00135 0 65.329757-25.42213 65.329757-54.9391V484.265991h67.377176v420.062316c0 65.278571-64.459603 119.671693-132.706933 119.671693H191.920023c-68.230268 0-123.527667-52.891681-123.527668-118.170252V261.694387c0-65.278571 54.819668-125.097356 123.066998-125.097356H460.985121v66.234034z m102.370995 344.563706c18.614459-0.136495 33.816552 14.570805 33.953046 32.86109 0.153556 18.290284-14.826732 33.23645-33.441191 33.372944H271.394038c-18.597397 0.136495-33.79949-14.570805-33.953046-32.861089-0.136495-18.290284 14.843794-33.23645 33.441191-33.372945H563.373178z m-46.118133-205.595081c18.597397-0.136495 33.79949 14.587867 33.953046 32.878151 0.136495 18.290284-14.843794 33.23645-33.441191 33.372945h-247.56719c-18.614459 0.136495-33.816552-14.570805-33.953046-32.878152-0.153556-18.290284 14.826732-33.219388 33.441191-33.355882h247.56719zM385.264708 733.658797c18.597397-0.136495 33.79949 14.570805 33.953047 32.878151 0.136495 18.290284-14.843794 33.219388-33.441192 33.355882H272.963727c-18.597397 0.153556-33.816552-14.570805-33.953047-32.861089-0.136495-18.290284 14.843794-33.23645 33.441192-33.372944h112.812836z m245.861006-700.217605v110.407118c0.153556 18.290284-14.826732 33.23645-33.441191 33.372944-18.597397 0.136495-33.782428-14.587867-33.935985-32.878151V33.458253c0-18.307346 15.08266-33.134079 33.697119-33.134078 18.597397 0 33.697119 14.843794 33.697119 33.117017z m290.733626 357.957245H809.558358c-18.597397 0-33.697119-14.843794-33.697119-33.134079s15.08266-33.117017 33.697119-33.117016h112.300982c18.597397 0 33.697119 14.826732 33.697119 33.099955 0 18.307346-15.08266 33.134079-33.697119 33.134078z m-62.446307-279.677558a32.724595 32.724595 0 0 1 0.034124 46.851792l-79.491078 78.074946a34.106603 34.106603 0 0 1-47.602513-1.689122 32.707533 32.707533 0 0 1 0-45.111485l79.371645-78.126131a34.106603 34.106603 0 0 1 47.602513 0h0.102371z" fill="#8a8a8a" p-id="2718"></path></svg>