<?xml version="1.0" standalone="no"?><!DOCTYPE svg PUBLIC "-//W3C//DTD SVG 1.1//EN" "http://www.w3.org/Graphics/SVG/1.1/DTD/svg11.dtd"><svg t="1763098867366" class="icon" viewBox="0 0 1024 1024" version="1.1" xmlns="http://www.w3.org/2000/svg" p-id="5055" xmlns:xlink="http://www.w3.org/1999/xlink" width="200" height="200"><path d="M953.6 748.8c0-2.133333 2.133333-2.133333 2.133333-2.133333 14.933333-10.666667 25.6-32 25.6-55.466667 0-21.333333-8.533333-42.666667-21.333333-53.333333l4.266667-2.133334c12.8-8.533333 21.333333-23.466667 23.466666-40.533333 0-17.066667-6.4-32-21.333333-40.533333l-8.533333-6.4 4.266666-4.266667c14.933333-10.666667 23.466667-27.733333 21.333334-46.933333 0-19.2-8.533333-36.266667-23.466667-46.933334l-6.4-2.133333c23.466667-21.333333 34.133333-51.2 29.866667-83.2-4.266667-32-25.6-55.466667-55.466667-66.133333-10.666667-4.266667-21.333333-6.4-34.133333-6.4H166.4c-61.866667 0-110.933333 51.2-110.933333 110.933333v356.266667c0 61.866667 51.2 110.933333 110.933333 110.933333H925.866667c25.6 0 46.933333-19.2 53.333333-49.066667 8.533333-25.6-2.133333-55.466667-25.6-72.533333z m-834.133333 14.933333V405.333333c0-25.6 21.333333-46.933333 46.933333-46.933333h520.533333V810.666667H166.4c-25.6 0-46.933333-21.333333-46.933333-46.933334z m791.466666-362.666666c-14.933333 10.666667-23.466667 29.866667-23.466666 46.933333 0 19.2 8.533333 36.266667 23.466666 46.933333l2.133334 2.133334-4.266667 4.266666c-14.933333 12.8-23.466667 29.866667-23.466667 49.066667 0 17.066667 8.533333 34.133333 21.333334 44.8l-4.266667 2.133333c-12.8 8.533333-21.333333 23.466667-23.466667 40.533334s6.4 32 19.2 40.533333l12.8 8.533333v10.666667c-17.066667 12.8-27.733333 36.266667-27.733333 59.733333 0 19.2 10.666667 34.133333 25.6 44.8l2.133333 2.133334s2.133333 0 2.133334 4.266666v6.4H746.666667V358.4h149.333333c4.266667 0 8.533333 0 12.8 2.133333 8.533333 2.133333 10.666667 10.666667 12.8 14.933334 0 8.533333-2.133333 19.2-10.666667 25.6z" fill="#8a8a8a" p-id="5056"></path><path d="M526.933333 603.733333c17.066667 0 32-14.933333 32-32s-14.933333-32-32-32h-46.933333l72.533333-102.4c10.666667-14.933333 6.4-34.133333-8.533333-44.8s-34.133333-6.4-44.8 8.533334l-83.2 115.2-83.2-115.2c-10.666667-14.933333-29.866667-17.066667-44.8-8.533334-14.933333 10.666667-17.066667 29.866667-8.533333 44.8l72.533333 102.4h-46.933333c-17.066667 0-32 14.933333-32 32s14.933333 32 32 32h76.8v32h-46.933334c-17.066667 0-32 14.933333-32 32s14.933333 32 32 32h46.933334v57.6c0 17.066667 14.933333 32 32 32s32-14.933333 32-32v-57.6h46.933333c17.066667 0 32-14.933333 32-32s-14.933333-32-32-32h-46.933333v-32h81.066666z" fill="#8a8a8a" p-id="5057"></path></svg>